<?xml version="1.0" encoding="utf-8"?>
<!-- Generator: Adobe Illustrator 22.0.0, SVG Export Plug-In . SVG Version: 6.00 Build 0)  -->
<svg version="1.1" id="Layer_1" xmlns="http://www.w3.org/2000/svg" xmlns:xlink="http://www.w3.org/1999/xlink" x="0px" y="0px"
	 viewBox="0 0 1500 500" style="enable-background:new 0 0 1500 500;" xml:space="preserve">
<style type="text/css">
	.st0{fill:#9F7AEA;}
	.st1{fill:#E7D300;}
	.st2{fill:#FFFFFF;}
</style>
<g>
	<rect class="st0" width="1500" height="500"/>
	<polygon class="st1" points="1070.9,464.4 1035.1,464.4 1035.1,500 1106.7,500 1106.7,464.4 	"/>
	<polygon class="st1" points="927.7,464.4 891.9,464.4 891.9,500 963.5,500 963.5,464.4 	"/>
	<rect x="963.5" y="144.4" class="st2" width="35.8" height="35.6"/>
	<rect x="1035.1" y="144.4" class="st2" width="35.8" height="35.6"/>
	<polygon class="st1" points="1070.9,251.1 1070.9,215.5 1035.1,215.5 1035.1,179.9 999.3,179.9 963.5,179.9 963.5,215.5 
		963.5,251.1 1035.1,251.1 	"/>
	<polygon class="st2" points="1070.9,464.4 1070.9,322.2 1035.1,322.2 1035.1,286.6 1035.1,251.1 963.5,251.1 963.5,286.6 
		927.7,286.6 927.7,322.2 927.7,464.4 963.5,464.4 963.5,500 1035.1,500 1035.1,464.4 	"/>
</g>
</svg>
